<svg xmlns="http://www.w3.org/2000/svg" width="153" height="169" viewBox="0 0 153 169"><g transform="translate(-1251 -4158)"><text transform="translate(1251 4298)" fill="#e5e5e5" font-size="22" font-family="Roboto-Regular, Roboto"><tspan x="0" y="23">+</tspan></text><text transform="translate(1286 4263)" fill="#e5e5e5" font-size="22" font-family="Roboto-Regular, Roboto"><tspan x="0" y="23">+</tspan></text><text transform="translate(1321 4158)" fill="#e5e5e5" font-size="22" font-family="Roboto-Regular, Roboto"><tspan x="0" y="23">+</tspan></text><text transform="translate(1321 4193)" fill="#e5e5e5" font-size="22" font-family="Roboto-Regular, Roboto"><tspan x="0" y="23">+</tspan></text><text transform="translate(1321 4216)" fill="#6246e5" font-size="22" font-family="Roboto-Regular, Roboto"><tspan x="0" y="23">+</tspan></text><text transform="translate(1321 4263)" fill="#e5e5e5" font-size="22" font-family="Roboto-Regular, Roboto"><tspan x="0" y="23">+</tspan></text><text transform="translate(1321 4298)" fill="#e5e5e5" font-size="22" font-family="Roboto-Regular, Roboto"><tspan x="0" y="23">+</tspan></text><text transform="translate(1356 4158)" fill="#e5e5e5" font-size="22" font-family="Roboto-Regular, Roboto"><tspan x="0" y="23">+</tspan></text><text transform="translate(1356 4193)" fill="#e5e5e5" font-size="22" font-family="Roboto-Regular, Roboto"><tspan x="0" y="23">+</tspan></text><text transform="translate(1356 4216)" fill="#e5e5e5" font-size="22" font-family="Roboto-Regular, Roboto"><tspan x="0" y="23">+</tspan></text><text transform="translate(1356 4263)" fill="#e5e5e5" font-size="22" font-family="Roboto-Regular, Roboto"><tspan x="0" y="23">+</tspan></text><text transform="translate(1356 4298)" fill="#e5e5e5" font-size="22" font-family="Roboto-Regular, Roboto"><tspan x="0" y="23">+</tspan></text><text transform="translate(1391 4158)" fill="#ff7152" font-size="22" font-family="Roboto-Regular, Roboto"><tspan x="0" y="23">+</tspan></text><text transform="translate(1391 4193)" fill="#e5e5e5" font-size="22" font-family="Roboto-Regular, Roboto"><tspan x="0" y="23">+</tspan></text><text transform="translate(1391 4216)" fill="#e5e5e5" font-size="22" font-family="Roboto-Regular, Roboto"><tspan x="0" y="23">+</tspan></text><text transform="translate(1391 4263)" fill="#e5e5e5" font-size="22" font-family="Roboto-Regular, Roboto"><tspan x="0" y="23">+</tspan></text><text transform="translate(1391 4298)" fill="#e5e5e5" font-size="22" font-family="Roboto-Regular, Roboto"><tspan x="0" y="23">+</tspan></text></g></svg>