<?xml version="1.0" encoding="utf-8"?>
<!-- Generator: Adobe Illustrator 27.0.0, SVG Export Plug-In . SVG Version: 6.00 Build 0)  -->
<svg version="1.1" xmlns="http://www.w3.org/2000/svg" xmlns:xlink="http://www.w3.org/1999/xlink" x="0px" y="0px"
	 viewBox="0 0 127.4 48.72" style="enable-background:new 0 0 127.4 48.72;" xml:space="preserve">
<style type="text/css">
	.st0{fill:#F2A502;}
	.st1{fill:#010202;}
</style>
<g id="Capa_2">
</g>
<g id="Capa_1">
	<g id="Top_Nav" transform="translate(-140.92 -37)">
		<g id="Logo">
			<path id="Rectangle_24" class="st0" d="M221.52,77.37l9.5,3l8-8l10,7l10.5-2l-4.5-14.5l-16,5l-9-5l-9.5,1.5L221.52,77.37z"/>
			<path id="Jadoo" class="st1" d="M147.44,72.43v-2.16l6.12-1.1v2.99c-0.07,1.34,0.37,2.66,1.24,3.68c0.88,0.82,2.06,1.25,3.27,1.2
				c1.18,0.06,2.33-0.41,3.13-1.29c0.83-0.95,1.26-2.19,1.2-3.45V49.76h6.35V72.3c0.06,2.84-1.01,5.59-2.99,7.64
				c-1.98,2.08-4.76,3.22-7.64,3.13c-2.88,0.13-5.68-0.91-7.77-2.89C148.36,78.09,147.31,75.3,147.44,72.43z"/>
			<path id="Jadoo-2" class="st1" d="M170.19,76.21c-0.08-1.75,0.61-3.44,1.89-4.65c1.36-1.21,3.06-1.98,4.88-2.21l5.57-0.83
				c1.13-0.15,1.7-0.69,1.7-1.61c0.02-0.83-0.36-1.61-1.01-2.12c-0.81-0.6-1.8-0.9-2.81-0.83c-1.13-0.06-2.23,0.32-3.08,1.06
				c-0.73,0.69-1.17,1.62-1.24,2.62l-5.43-1.15c0.26-2.04,1.3-3.91,2.9-5.2c1.91-1.57,4.34-2.37,6.81-2.25
				c3.37,0,5.86,0.81,7.45,2.44c1.61,1.64,2.48,3.87,2.39,6.16v11.13c-0.01,1.2,0.08,2.4,0.28,3.59h-5.61
				c-0.17-0.89-0.25-1.8-0.23-2.71c-1.45,2.25-4,3.53-6.67,3.36c-2.08,0.09-4.11-0.63-5.66-2.02
				C170.96,79.77,170.19,78.03,170.19,76.21z M179.26,78.46c1.29,0.05,2.55-0.38,3.54-1.2c1.05-1.07,1.57-2.55,1.43-4.05V72.2
				l-5.11,0.78c-1.87,0.28-2.81,1.23-2.81,2.85c-0.01,0.71,0.27,1.39,0.78,1.89C177.69,78.24,178.47,78.51,179.26,78.46z"/>
			<path id="Jadoo-3" class="st1" d="M214.18,49.07v29.21c0,1.5,0.06,2.87,0.18,4.09h-5.84c-0.16-0.86-0.24-1.74-0.23-2.62
				c-0.58,1-1.44,1.8-2.48,2.3c-1.2,0.6-2.52,0.9-3.86,0.87c-3.01,0.09-5.92-1.14-7.96-3.36c-2.09-2.35-3.19-5.41-3.08-8.56
				c-0.09-3.09,0.99-6.1,3.04-8.42c1.98-2.23,4.84-3.48,7.82-3.4c3.25,0,5.38,0.94,6.39,2.81V49.07H214.18z M197.06,71.01
				c-0.09,1.72,0.47,3.41,1.56,4.74c1.04,1.13,2.52,1.75,4.05,1.7c1.53,0.04,2.99-0.6,4-1.75c1.1-1.33,1.65-3.01,1.56-4.73
				c0.1-1.68-0.46-3.33-1.56-4.6c-1.02-1.12-2.48-1.75-4-1.7c-1.53-0.04-3.01,0.58-4.05,1.7C197.53,67.66,196.97,69.32,197.06,71.01
				z"/>
			<path id="Jadoo-4" class="st1" d="M223.2,75.79c1.07,1.11,2.55,1.72,4.09,1.7c1.53,0.03,3-0.59,4.05-1.7
				c1.19-1.28,1.8-2.99,1.7-4.74c0.1-1.75-0.51-3.46-1.7-4.74c-1.05-1.11-2.52-1.73-4.05-1.7c-1.54-0.02-3.02,0.59-4.09,1.7
				c-1.16,1.29-1.76,3-1.66,4.74C221.44,72.79,222.04,74.5,223.2,75.79z M218.79,62.45c2.25-2.26,5.33-3.49,8.51-3.4
				c3.17-0.09,6.24,1.14,8.46,3.4c2.27,2.28,3.5,5.39,3.4,8.6c0.1,3.21-1.13,6.32-3.4,8.6c-2.22,2.26-5.29,3.49-8.46,3.4
				c-3.18,0.09-6.26-1.14-8.51-3.4c-2.25-2.29-3.46-5.4-3.36-8.6C215.33,67.85,216.54,64.74,218.79,62.45z"/>
			<path id="Jadoo-5" class="st1" d="M246.39,75.79c1.07,1.11,2.55,1.72,4.09,1.7c1.53,0.03,3-0.59,4.05-1.7
				c1.19-1.28,1.8-2.99,1.7-4.74c0.1-1.75-0.51-3.46-1.7-4.74c-1.05-1.11-2.52-1.73-4.05-1.7c-1.54-0.02-3.02,0.59-4.09,1.7
				c-1.16,1.29-1.76,3-1.66,4.74C244.63,72.79,245.22,74.5,246.39,75.79z M241.97,62.45c2.25-2.26,5.33-3.49,8.51-3.4
				c3.17-0.09,6.24,1.14,8.46,3.4c2.27,2.28,3.5,5.39,3.4,8.6c0.1,3.21-1.13,6.32-3.4,8.6c-2.22,2.26-5.29,3.49-8.46,3.4
				c-3.18,0.09-6.26-1.14-8.51-3.4c-2.25-2.29-3.46-5.4-3.36-8.6C238.51,67.85,239.72,64.74,241.97,62.45z"/>
		</g>
	</g>
</g>
</svg>
