<svg xmlns="http://www.w3.org/2000/svg" xmlns:xlink="http://www.w3.org/1999/xlink" width="1356" height="493" viewBox="0 0 1356 493"><defs><linearGradient id="a" x1="0.709" y1="0.028" x2="0" y2="1" gradientUnits="objectBoundingBox"><stop offset="0" stop-color="#747def"/><stop offset="1" stop-color="#5e3be1"/></linearGradient><clipPath id="c"><path d="M0,0H240a24,24,0,0,1,24,24V351.522a0,0,0,0,1,0,0H50a50,50,0,0,1-50-50V0A0,0,0,0,1,0,0Z" transform="translate(1041 3847)" stroke="#6246e5" stroke-width="1" fill="url(#a)"/></clipPath><clipPath id="d"><rect width="361" height="480" transform="translate(528 3893) rotate(90)" stroke="#6246e5" stroke-width="1" fill="url(#a)"/></clipPath><linearGradient id="e" x1="0.5" x2="0.5" y2="1" gradientUnits="objectBoundingBox"><stop offset="0" stop-color="#ff946d"/><stop offset="1" stop-color="#ff7d68"/></linearGradient></defs><g transform="translate(-48 -3834)"><text transform="translate(1251 4298)" fill="#e5e5e5" font-size="22" font-family="Roboto-Regular, Roboto"><tspan x="0" y="23">+</tspan></text><text transform="translate(1286 4263)" fill="#e5e5e5" font-size="22" font-family="Roboto-Regular, Roboto"><tspan x="0" y="23">+</tspan></text><text transform="translate(1321 4158)" fill="#e5e5e5" font-size="22" font-family="Roboto-Regular, Roboto"><tspan x="0" y="23">+</tspan></text><text transform="translate(1321 4193)" fill="#e5e5e5" font-size="22" font-family="Roboto-Regular, Roboto"><tspan x="0" y="23">+</tspan></text><text transform="translate(1321 4216)" fill="#6246e5" font-size="22" font-family="Roboto-Regular, Roboto"><tspan x="0" y="23">+</tspan></text><text transform="translate(1321 4263)" fill="#e5e5e5" font-size="22" font-family="Roboto-Regular, Roboto"><tspan x="0" y="23">+</tspan></text><text transform="translate(1321 4298)" fill="#e5e5e5" font-size="22" font-family="Roboto-Regular, Roboto"><tspan x="0" y="23">+</tspan></text><text transform="translate(1356 4158)" fill="#e5e5e5" font-size="22" font-family="Roboto-Regular, Roboto"><tspan x="0" y="23">+</tspan></text><text transform="translate(1356 4193)" fill="#e5e5e5" font-size="22" font-family="Roboto-Regular, Roboto"><tspan x="0" y="23">+</tspan></text><text transform="translate(1356 4216)" fill="#e5e5e5" font-size="22" font-family="Roboto-Regular, Roboto"><tspan x="0" y="23">+</tspan></text><text transform="translate(1356 4263)" fill="#e5e5e5" font-size="22" font-family="Roboto-Regular, Roboto"><tspan x="0" y="23">+</tspan></text><text transform="translate(1356 4298)" fill="#e5e5e5" font-size="22" font-family="Roboto-Regular, Roboto"><tspan x="0" y="23">+</tspan></text><text transform="translate(1391 4158)" fill="#ff7152" font-size="22" font-family="Roboto-Regular, Roboto"><tspan x="0" y="23">+</tspan></text><text transform="translate(1391 4193)" fill="#e5e5e5" font-size="22" font-family="Roboto-Regular, Roboto"><tspan x="0" y="23">+</tspan></text><text transform="translate(1391 4216)" fill="#e5e5e5" font-size="22" font-family="Roboto-Regular, Roboto"><tspan x="0" y="23">+</tspan></text><text transform="translate(1391 4263)" fill="#e5e5e5" font-size="22" font-family="Roboto-Regular, Roboto"><tspan x="0" y="23">+</tspan></text><text transform="translate(1391 4298)" fill="#e5e5e5" font-size="22" font-family="Roboto-Regular, Roboto"><tspan x="0" y="23">+</tspan></text><path d="M20,0H1150a20,20,0,0,1,20,20V278a129,129,0,0,1-129,129H20A20,20,0,0,1,0,387V20A20,20,0,0,1,20,0Z" transform="translate(1305 4254) rotate(180)" fill="#dfd7f9" opacity="0.2"/><g opacity="0.1"><g clip-path="url(#c)"><g transform="translate(1187.712 3933.017)" fill="none" stroke="#6246e5" stroke-width="1"><circle cx="92.303" cy="92.303" r="92.303" stroke="none"/><circle cx="92.303" cy="92.303" r="91.803" fill="none"/></g><g transform="translate(1169.494 3912.37)" fill="none" stroke="#6246e5" stroke-width="1"><circle cx="103.234" cy="103.234" r="103.234" stroke="none"/><circle cx="103.234" cy="103.234" r="102.734" fill="none"/></g><g transform="translate(1153.705 3894.759)" fill="none" stroke="#6246e5" stroke-width="1"><circle cx="112.95" cy="112.95" r="112.95" stroke="none"/><circle cx="112.95" cy="112.95" r="112.45" fill="none"/></g><g transform="translate(1139.131 3874.72)" fill="none" stroke="#6246e5" stroke-width="1"><circle cx="121.452" cy="121.452" r="121.452" stroke="none"/><circle cx="121.452" cy="121.452" r="120.952" fill="none"/></g><g transform="translate(1125.164 3855.288)" fill="none" stroke="#6246e5" stroke-width="1"><circle cx="129.65" cy="129.65" r="129.65" stroke="none"/><circle cx="129.65" cy="129.65" r="129.15" fill="none"/></g><g transform="translate(1102.696 3829.783)" fill="none" stroke="#6246e5" stroke-width="1"><circle cx="142.402" cy="142.402" r="142.402" stroke="none"/><circle cx="142.402" cy="142.402" r="141.902" fill="none"/></g></g></g><g opacity="0.1"><g clip-path="url(#d)"><g transform="translate(410.545 4094.984) rotate(90)" fill="none" stroke="#6246e5" stroke-width="1"><ellipse cx="126.218" cy="126.039" rx="126.218" ry="126.039" stroke="none"/><ellipse cx="126.218" cy="126.039" rx="125.718" ry="125.539" fill="none"/></g><g transform="translate(438.738 4070.073) rotate(90)" fill="none" stroke="#6246e5" stroke-width="1"><ellipse cx="141.165" cy="140.965" rx="141.165" ry="140.965" stroke="none"/><ellipse cx="141.165" cy="140.965" rx="140.665" ry="140.465" fill="none"/></g><g transform="translate(462.785 4048.483) rotate(90)" fill="none" stroke="#6246e5" stroke-width="1"><ellipse cx="154.451" cy="154.232" rx="154.451" ry="154.232" stroke="none"/><ellipse cx="154.451" cy="154.232" rx="153.951" ry="153.732" fill="none"/></g><g transform="translate(490.149 4028.554) rotate(90)" fill="none" stroke="#6246e5" stroke-width="1"><ellipse cx="166.076" cy="165.841" rx="166.076" ry="165.841" stroke="none"/><ellipse cx="166.076" cy="165.841" rx="165.576" ry="165.341" fill="none"/></g><g transform="translate(516.683 4009.455) rotate(90)" fill="none" stroke="#6246e5" stroke-width="1"><ellipse cx="177.286" cy="177.036" rx="177.286" ry="177.036" stroke="none"/><ellipse cx="177.286" cy="177.036" rx="176.786" ry="176.536" fill="none"/></g><g transform="translate(551.51 3978.731) rotate(90)" fill="none" stroke="#6246e5" stroke-width="1"><ellipse cx="194.724" cy="194.449" rx="194.724" ry="194.449" stroke="none"/><ellipse cx="194.724" cy="194.449" rx="194.224" ry="193.949" fill="none"/></g></g></g><rect width="421" height="68" rx="10" transform="translate(387 4108)" fill="#fff"/><text transform="translate(453 4133)" fill="#39425d" font-size="14" font-family="Poppins-Regular, Poppins"><tspan x="0" y="15">Your email</tspan></text><path d="M0,0,6,4.5,12,0" transform="translate(422 4139)" fill="none" stroke="#39425d" stroke-linecap="round" stroke-width="1"/><g transform="translate(418 4133)" fill="none" stroke="#39425d" stroke-width="1"><rect width="21" height="18" rx="5" stroke="none"/><rect x="0.5" y="0.5" width="20" height="17" rx="4.5" fill="none"/></g><rect width="180" height="68" rx="10" transform="translate(832 4108)" fill="url(#e)"/><text transform="translate(882 4130)" fill="#fff" font-size="17" font-family="Poppins-Bold, Poppins" font-weight="700"><tspan x="3.233" y="18">Subscribe</tspan></text><text transform="translate(291 3926)" fill="#5e6282" font-size="33" font-family="Poppins-SemiBold, Poppins" font-weight="600"><tspan x="0.434" y="35">Subscribe to get information, latest news and other</tspan><tspan x="154.99" y="89">interesting offers about Cobham</tspan></text><circle cx="35" cy="35" r="35" transform="translate(1255 3834)" fill="url(#a)"/><path d="M34.769,15A3.3,3.3,0,0,1,32.7,18.1L4.646,29.741a3.357,3.357,0,0,1-4.54-3.931l2.5-9.792L2.862,15,2.6,13.981.106,4.189A3.357,3.357,0,0,1,4.646.259L32.7,11.9A3.3,3.3,0,0,1,34.769,15Z" transform="translate(1270 3862.384) rotate(-30)" fill="#fff"/><path d="M2.6,1.019l-2.5,9.792a3.357,3.357,0,0,0,4.54,3.931L32.7,3.1A3.3,3.3,0,0,0,34.769,0H2.862Z" transform="translate(1277.5 3875.375) rotate(-30)" fill="#fff"/><path d="M13.243,1.019a1.019,1.019,0,0,1-1.019,1.019H0L.259,1.019,0,0H12.224A1.019,1.019,0,0,1,13.243,1.019Z" transform="translate(1279.245 3873.191) rotate(-30)" fill="url(#a)"/><path d="M0,1.019H12.224A1.019,1.019,0,0,0,13.243,0H.259Z" transform="translate(1279.754 3874.073) rotate(-30)" fill="url(#a)"/></g></svg>